<?xml version="1.0" encoding="utf-8"?>
<!-- Generator: Adobe Illustrator 25.4.1, SVG Export Plug-In . SVG Version: 6.00 Build 0)  -->
<svg version="1.1" xmlns="http://www.w3.org/2000/svg" xmlns:xlink="http://www.w3.org/1999/xlink" x="0px" y="0px"
	 viewBox="0 0 158.5 65.2" style="enable-background:new 0 0 158.5 65.2;" xml:space="preserve">
<style type="text/css">
	.st0{display:none;}
	.st1{display:inline;fill:#002D74;}
	.st2{fill:#FFFFFF;}
	.st3{display:inline;}
	.st4{fill:none;}
	.st5{fill:#002D74;}
	.st6{fill:#D9D8D6;}
</style>
<g id="Layer_1">
	<g id="Layer_2_1_" class="st0">
		<rect x="-795.2" y="-383.1" class="st1" width="1747.8" height="830"/>
	</g>
	<g>
		<path class="st2" d="M29.8,57.2v-9.1l-4.2,2.8l-2.2,1.5l0.7-2.6l1.7-6l-4.5-3.7l-2.1-1.7h2.8h5.4l2.2-5.5l0.3-0.8v-1.2H9.7
			C10.2,44.8,20.1,53,29.8,57.2z"/>
		<path class="st2" d="M23.6,23.7l0.1-0.9c0,0-3.8,1.1-4.5,3.3c-0.2,0.7-0.8,2.3-1.6,3.5H19c0.4-0.7,0.9-1.6,1.4-2.7
			C21.3,24.8,23.6,23.7,23.6,23.7z"/>
		<path class="st2" d="M28.2,24.6c0.1,0.1,0.1,0.2,0.1,0.3l0.1,1.6c0,0-0.8,0-0.9,0.8l-0.4,0.1c0,0-0.2-0.2-0.2-0.9L26,26.8
			c0,0-0.2,1.9,0.2,2.5c0,0,2.3-2.1,2.8-2.6c0.1-0.1,0.1-0.1,0.1-0.2l0.3-1.1c0-0.1,0-0.3-0.1-0.4c-0.5-0.7-2.1-3.3-2.6-4.1
			l-0.3,1.6l0,0l0,0l0,0l0,0L28.2,24.6z"/>
		<path class="st2" d="M14.6,21.2c0-0.8-0.2-1.7-0.4-2.6c0-0.1,0-0.1,0-0.2c-0.4-1.4-1.4-5.5,1.7-7.2c2.6-1.4,4.9,0,4.9,0
			c0.6-0.3,1.1-0.2,1.1-0.2c-0.3,0.2-0.5,0.4-0.5,0.6l0.8,1.3c0,0,0.3,3.1,0.2,4.7c0,0.1,0,0.3-0.2,0.3c-0.4,0-1.4-0.2-1.4-2.8
			c0,0,0-0.1-0.1-0.1c-0.4-0.1-2.1-0.4-1-2.9c0-0.1,0-0.1-0.1-0.1c-0.7,0.2-2.9,1.2-1.7,4.1c0.6,1.6,3.1,2.3,2.4,5.6l-1,2.2l5.8-3.2
			c0.1,0,0.1,0,0.1,0.1L24.7,25c0,0,0,0,0,0.1c-0.1,0.1-0.7,0.6-0.4,1.5l-0.9,0.8l-0.2-1.1l-0.8,0.1c0,0-0.5,1.8,0.2,2.9l2.7-2.6
			c0.1-0.1,0.2-0.3,0.2-0.4l0.7-6.2c0.1-0.5-0.5-0.9-0.9-0.6l-3.1,1.4c-0.1,0-0.1,0-0.1-0.1c0-0.3-0.1-1.3-1.6-2.3
			c-1.5-1-1.4-2.4-1.4-2.8c0-0.1,0.1-0.1,0.1-0.1c0.2,0.1,0.5,0.1,0.7,0.2c0,0,0.2,0,0.3,0.2c0.3,0.5,0.2,1.6,0.2,1.6
			c0,0.1,0,0.2,0.1,0.2l0.8,0.9c0,0,0,0,0.1,0l1.2,0.1c0.4-0.1,0.6-0.3,0.6-0.8L22.7,13L22,11.5c0,0,0.1-0.5,0.6-0.7
			c-0.2-0.2-0.7-0.3-1-0.2c0,0,0,0,0,0c-1.8-1.9-5.4-1.6-7-0.5c-2.7,1.9-1.9,3.5-3.9,6.1c0.5,0.1,1-0.1,1.4-0.4
			c-0.9,1.7-0.7,3-1.9,4.4c0,0,1,0.2,2.1-0.9c-0.1,0.4-0.3,0.8-0.5,1.2c-1.6,2.9-0.6,4.4-0.6,4.4s0.4-1.8,2.2-3.2
			c0,0,0.1-0.1,0.1-0.1c-0.2,2-1,5.4-3.7,8h1.7C13.1,27.6,14.5,23.5,14.6,21.2z"/>
		<path class="st2" d="M7.4,4.3h-1v1v24.4c0,7.9,2.6,14.7,7.8,20.5c5.1,5.7,11.5,8.9,16,10.6l0.3,0.1l0.3-0.1
			c4.5-1.7,10.9-4.9,16-10.6c5.1-5.7,7.8-12.6,7.8-20.5V5.3v-1h-1H7.4z M53.6,5.3v24.4c0,16.7-12.3,26.1-23.1,30.1
			c-1.7-0.6-3.4-1.4-5.1-2.3c-9.2-4.8-18-13.7-18-27.8V5.3L53.6,5.3L53.6,5.3z"/>
		<polygon class="st2" points="30.4,42.6 26.9,43.5 25.1,50.2 		"/>
		<polygon class="st2" points="38.8,39.4 30.5,42.5 33.9,43.4 		"/>
		<polygon class="st2" points="35.7,50.1 30.5,42.5 30.5,46.5 		"/>
		<polygon class="st2" points="28,39.4 21.9,39.4 30.5,42.5 30.5,42.5 32.9,39.3 30.5,33.3 30.5,42.5 		"/>
		<polygon class="st2" points="21.9,39.4 21.9,39.4 21.9,39.4 		"/>
		<path class="st2" d="M47.6,29.6c-0.3-0.2-0.8-0.5-0.9-0.5c-0.3-0.2-1-0.6-1.2-0.7c-0.3-0.2-2.6-0.7-3.1-0.8c-0.1,0-0.1,0-0.2-0.1
			l-1.5-0.6c-0.4-0.2-0.7-0.5-0.8-1l-0.1-0.6c0-0.2-0.1-0.3-0.2-0.5l-1.9-2.8L37.2,23c0,0-0.6-1.3-0.9-2.6c-0.3-1.3,0.1-1.8,0.3-3.2
			c0.2-1.4-0.4-2.4-0.7-3.5c-0.4-1.2-0.4-2.3-0.4-2.3l-1.4-0.2c-0.1,0-0.3,0-0.4,0L32,11.4l-0.3-0.7l0.9,0c0.3,0,0.7-0.1,0.9-0.4
			l0.9-0.8l-0.2-1l0.7,0l1.3-0.1l0.6,1l0.3,0.7c0.2,0.3,1,1,1.5,1.3c1.1,0.5,2.2,0.2,2.2,0.2l1,0.7c0,0,0.3-0.2,0.6-0.5
			c0.3-0.3,0.5-1.1,0.5-1.1l0.4,1.1l0.7,0.6L42.9,13l-0.5,1.2l0.7,0.8l1.2,0.3l0.8,0.1l0.8,0.6l0-1.2l-0.5-0.6l-0.1-0.9l0.9,0
			l0.8-0.7l1.7,0.9c0.2,0.1,0.4,0.2,0.7,0.2h1.4c-0.2,0.4-0.4,0.6-1.1,0.4C48.9,14,48.4,15,48,15.7l0.5,0.4c0.4,0.1,0.7-0.2,1.2-0.6
			L49.3,17l-0.9,0.2c0,0-0.7,0.7-0.7,2c0,0.7,0.2,1.4,0,1.9c-0.2,0.5-0.5,0.7-0.5,0.7c-0.2,0.3-0.2,0.7-0.2,1l0.2,1l-0.7-0.7
			c-0.3-0.3-0.6-0.4-1-0.4L44.2,23L44,23.7L43.3,24c-0.5,0.2-0.8,0.6-0.9,1.2c0,0.4-0.1,1.2,0.3,1.5l1,0.5l0.7-0.4
			c0,0-0.1-0.5,0.2-0.7c0.3-0.2,0.8-0.1,0.8-0.1s-0.3,0.9,0.1,1.4c0.4,0.5,1.5-0.1,1.5-0.1l0,0.5c0.1,0.7,0.8,1.4,1.4,1.5
			c0.9,0.1,1.4,0.3,1.8,0.6h1.2V7.5H31.2v22.1h16.6L47.6,29.6z"/>
		<path class="st2" d="M64.6,47.3c0.3,0.1,0.5,0.5,0.5,1.2v3.9c0,0.3-0.1,0.6-0.3,0.8c-0.2,0.2-0.4,0.4-0.7,0.5
			c-0.3,0.1-0.6,0.2-0.9,0.2c-0.2,0-0.5,0-0.7-0.1c-0.2-0.1-0.4-0.2-0.5-0.4c-0.3-0.3-0.5-0.8-0.5-1.5v-3.2c0-0.4,0-0.7,0.1-0.9
			c0.1-0.2,0.2-0.4,0.4-0.4v0h-2.1v0c0.1,0.1,0.3,0.2,0.3,0.3c0.1,0.1,0.1,0.2,0.1,0.4c0,0.1,0,0.3,0,0.6v3.7c0,0.5,0.1,0.9,0.3,1.3
			c0.2,0.4,0.5,0.6,0.8,0.8c0.1,0.1,0.2,0.1,0.3,0.1c0.1,0,0.2,0.1,0.3,0.1c0.2,0.1,0.4,0.1,0.7,0.1c0.5,0,1-0.1,1.4-0.2
			c0.4-0.2,0.7-0.4,0.9-0.7v0.7h1.6v0c-0.3-0.1-0.5-0.5-0.5-1.1v-5c0-0.7,0.2-1,0.5-1.1v0L64.6,47.3L64.6,47.3z"/>
		<path class="st2" d="M76.7,47.3c0.3,0.1,0.4,0.3,0.5,0.5c0.1,0.2,0.1,0.5,0.1,0.8v4.3l-4-5.1c-0.2-0.3-0.3-0.5-0.3-0.5h-1.6v0
			c0.2,0.1,0.4,0.3,0.4,0.4c0.1,0.1,0.1,0.4,0.1,0.8v4.7c0,0,0,0.1,0,0.2c0,0.1,0,0.2,0,0.3l-0.1,0.3l0,0.1
			c-0.1,0.2-0.2,0.4-0.5,0.5v0h1.9v0c-0.2-0.1-0.3-0.2-0.3-0.3c-0.1-0.1-0.1-0.2-0.2-0.3c0-0.1-0.1-0.4-0.1-0.7v-4.4l3.9,5
			c0.2,0.2,0.4,0.5,0.6,0.6c0.2,0.2,0.5,0.3,0.8,0.4l0-6.3c0-0.3,0-0.5,0.1-0.7c0-0.2,0.1-0.3,0.2-0.4c0.1-0.1,0.2-0.2,0.3-0.3v0
			L76.7,47.3L76.7,47.3z"/>
		<path class="st2" d="M83.3,47.3c0.2,0.1,0.4,0.3,0.4,0.5l0,0.2l0,0.2l0,0.6V53c0,0.5,0,0.8-0.1,1.1c-0.1,0.2-0.2,0.4-0.4,0.5v0
			h2.1v0c-0.1-0.1-0.3-0.2-0.3-0.3c-0.1-0.1-0.1-0.2-0.1-0.4c0-0.2,0-0.5,0-0.8v-4.3c0-0.3,0-0.6,0-0.8c0-0.2,0.1-0.3,0.1-0.4
			c0.1-0.1,0.2-0.2,0.3-0.3v0L83.3,47.3L83.3,47.3z"/>
		<path class="st2" d="M94.6,47.3c0.3,0.1,0.4,0.3,0.4,0.6c0,0.2-0.1,0.5-0.2,0.8l-1.7,4.5l-1.8-5.1c-0.1-0.3-0.2-0.6-0.2-0.7
			c0,0,0-0.1,0-0.1h-1.6v0c0.2,0.1,0.3,0.3,0.4,0.4c0.1,0.1,0.2,0.4,0.3,0.7l1.8,4.9c0.2,0.4,0.3,0.6,0.4,0.8
			c0.1,0.2,0.4,0.3,0.7,0.5l0.3,0.2l2.9-7.6L94.6,47.3L94.6,47.3z"/>
		<path class="st2" d="M104.8,53.6c-0.3,0.1-0.6,0.2-0.9,0.2l-0.1,0h-0.1l-0.6-0.1l-0.9-0.1V51h0.9c0.5,0,0.8,0.1,0.9,0.3h0v-1.2h0
			c-0.1,0-0.3,0.1-0.5,0.1c-0.1,0-0.1,0-0.3,0h-1v-2.1l0.1,0l0.2,0l0.3,0h0.5c0.3,0,0.6,0,0.8,0.1c0.2,0.1,0.4,0.2,0.5,0.3h0v-1.3h0
			c-0.1,0-0.2,0.1-0.3,0.1c0,0-0.1,0-0.2,0h-3.5v0c0.2,0.1,0.4,0.2,0.4,0.5c0.1,0.2,0.1,0.5,0.1,0.8v4.9c0,0.6-0.2,0.9-0.5,1.1v0
			h4.6l0.5-1.5h0C105.4,53.3,105.1,53.5,104.8,53.6z"/>
		<path class="st2" d="M115,53.1l-1.7-2.1c0.6-0.2,1-0.4,1.3-0.7c0.3-0.3,0.4-0.7,0.5-1c0-0.6-0.2-1-0.6-1.4c-0.4-0.4-1-0.6-1.7-0.6
			h-2.6l0,0c0.2,0.1,0.3,0.2,0.4,0.3c0.1,0.1,0.1,0.2,0.1,0.4l0,0.3v0.2v0.1v0.1v0.1v0.1V53c0,0.5,0,0.8-0.1,1.1
			c-0.1,0.2-0.2,0.4-0.4,0.5v0h2.1v0c-0.2-0.1-0.3-0.2-0.3-0.3c-0.1-0.1-0.1-0.2-0.1-0.4c0-0.2,0-0.5,0-0.8v-5
			c0.1,0,0.3-0.1,0.4-0.1c0.1,0,0.2,0,0.3,0c0.4,0,0.7,0.1,1,0.3c0.2,0.1,0.3,0.2,0.3,0.4c0.1,0.1,0.1,0.3,0.1,0.5
			c0,0.3-0.1,0.6-0.3,0.8c-0.2,0.2-0.4,0.4-0.7,0.6l-0.2,0.1l-0.2,0.1c-0.1,0-0.1,0-0.2,0.1l-0.2,0l1,1.5l1.3,1.6
			c0.2,0.2,0.3,0.4,0.5,0.5s0.4,0.2,0.7,0.2h1.1c-0.4-0.3-0.8-0.6-1.1-0.8C115.4,53.5,115.2,53.3,115,53.1z"/>
		<path class="st2" d="M123.6,50.7l-0.9-0.5c-0.5-0.2-0.8-0.4-1.1-0.6c-0.3-0.2-0.4-0.5-0.4-0.8c0-0.1,0-0.2,0-0.2
			c0.1-0.2,0.2-0.4,0.5-0.5c0.2-0.1,0.5-0.2,0.9-0.2c0.2,0,0.3,0,0.5,0c0.2,0,0.3,0.1,0.5,0.1c0.3,0.1,0.6,0.3,0.8,0.5v-1.2
			c-0.6-0.2-1.1-0.2-1.6-0.2c-0.5,0-1,0.1-1.4,0.2c-0.4,0.1-0.8,0.3-1,0.6c-0.1,0.1-0.2,0.3-0.3,0.5c-0.1,0.2-0.1,0.4-0.1,0.6
			c0,0.3,0.1,0.6,0.2,0.9c0.2,0.3,0.3,0.5,0.5,0.6c0.2,0.2,0.4,0.3,0.7,0.4l1.3,0.6c0.7,0.3,1.1,0.8,1.1,1.3c0,0.4-0.2,0.7-0.5,0.8
			c-0.2,0.1-0.4,0.2-0.6,0.2c-0.2,0-0.4,0.1-0.6,0.1l-0.3,0l-0.3,0l-0.6-0.2c-0.4-0.1-0.8-0.4-1.1-0.7l0.3,1.4
			c0.3,0.1,0.7,0.2,1,0.2c0.2,0,0.3,0,0.4,0.1c0.1,0,0.3,0,0.4,0c0.6,0,1.1-0.1,1.6-0.3c0.5-0.2,0.8-0.5,1.1-0.8
			c0.1-0.1,0.2-0.2,0.2-0.3c0-0.1,0.1-0.1,0.1-0.1c0,0,0-0.1,0.1-0.1c0.1-0.2,0.1-0.4,0.1-0.6c0-0.4-0.1-0.8-0.4-1.1
			C124.3,51.1,124,50.9,123.6,50.7z"/>
		<path class="st2" d="M129.7,47.3c0.2,0.1,0.4,0.3,0.4,0.5l0,0.2l0,0.2l0,0.6V53c0,0.5,0,0.8-0.1,1.1c-0.1,0.2-0.2,0.4-0.4,0.5v0
			h2.1v0c-0.1-0.1-0.3-0.2-0.3-0.3c-0.1-0.1-0.1-0.2-0.1-0.4c0-0.2,0-0.5,0-0.8v-4.3c0-0.3,0-0.6,0-0.8c0-0.2,0.1-0.3,0.1-0.4
			c0.1-0.1,0.2-0.2,0.3-0.3v0L129.7,47.3L129.7,47.3z"/>
		<path class="st2" d="M140.8,47.3h-4.2c-0.2,0-0.4,0-0.5-0.1h0l-0.4,1.3h0c0.3-0.3,0.7-0.4,1.4-0.4h0.9v5.4c0,0.6-0.2,0.9-0.5,1v0
			h2.2v0c-0.3-0.2-0.4-0.3-0.5-0.5c-0.1-0.2-0.1-0.4-0.1-0.6v-5.4h1l0.3,0c0.1,0,0.2,0,0.3,0.1c0.2,0.1,0.3,0.2,0.3,0.3h0l0.3-1.3h0
			C141.3,47.3,141.1,47.3,140.8,47.3z"/>
		<path class="st2" d="M151.4,47.3h-1.9v0c0.3,0.1,0.4,0.3,0.4,0.5l0,0.1l0,0.1c0,0.1-0.1,0.2-0.1,0.2l-1.4,2.1l-1.6-2.6l-0.1-0.2
			c-0.1-0.1-0.1-0.2-0.1-0.2c-0.1-0.1-0.2-0.1-0.3-0.1s-0.2-0.1-0.4-0.1h-1c0.2,0.1,0.3,0.2,0.5,0.4c0.2,0.2,0.3,0.3,0.3,0.4
			l2.1,3.3l0,2.1c0,0.3,0,0.5-0.1,0.6c-0.1,0.2-0.2,0.3-0.4,0.4v0h2.1v0c-0.3-0.2-0.4-0.4-0.5-0.5c0-0.1-0.1-0.2-0.1-0.3
			c0-0.1,0-0.3,0-0.4v-1.9L151.4,47.3z"/>
		<path class="st2" d="M70.1,42.4c-0.1-0.1-0.2-0.3-0.3-0.5c-0.1-0.1-0.1-0.2-0.2-0.3c-0.1-0.1-0.1-0.3-0.2-0.4l-4-10h-2.9v0
			c0.4,0.1,0.5,0.4,0.5,0.7c0,0.2-0.1,0.4-0.2,0.8l-3.1,7.9l-0.3,0.7l-0.2,0.4l-0.2,0.3c-0.1,0.2-0.3,0.4-0.5,0.6l-0.2,0.2l-0.1,0.1
			c-0.1,0.1-0.2,0.1-0.3,0.2v0.1h3.3v-0.1c-0.4-0.1-0.6-0.4-0.7-0.8l0.1-0.3l0.1-0.4l1.1-3h4.6l1.2,3.1c0.1,0.3,0.2,0.6,0.2,0.7
			c0,0.2-0.2,0.4-0.6,0.6v0.1H71v-0.1C70.5,42.9,70.2,42.7,70.1,42.4z M62.4,37.3l1.8-4.6l1.8,4.6H62.4z"/>
		<path class="st2" d="M87.2,42.7c-0.1-0.2-0.2-0.3-0.3-0.6c-0.1-0.2-0.1-0.5-0.1-0.8l-1.2-8.7l0-0.2l0-0.1c0-0.3,0-0.5,0.2-0.7
			c0.1-0.2,0.3-0.3,0.4-0.3v0H83c0,0.4-0.1,0.7-0.2,1l-3.1,7.9L76.3,32c-0.1-0.2-0.1-0.5-0.2-0.8h-3.2v0c0.4,0.2,0.6,0.5,0.6,1
			c0,0.1,0,0.3-0.1,0.5l-0.1,0.4l-1,7.7c-0.1,0.6-0.2,1.1-0.3,1.4c-0.1,0.4-0.3,0.6-0.7,0.9v0.1h2.9v-0.1c-0.2-0.1-0.4-0.3-0.5-0.4
			c-0.1-0.1-0.1-0.2-0.2-0.3c0-0.1,0-0.1,0-0.2l0-0.2c0-0.1,0-0.3,0-0.5l1.1-8.4l3.6,8.5c0.2,0.5,0.4,0.9,0.6,1.1
			c0.1,0.2,0.3,0.3,0.4,0.5l0.5,0.4l4-10.5l1,8.3l0,0.3l0,0.4c0,0.6-0.2,0.9-0.7,1.1v0.1h3.5l0,0C87.5,43,87.3,42.9,87.2,42.7z"/>
		<path class="st2" d="M96.1,41.7c-0.5,0.2-0.9,0.3-1.5,0.3l-0.2,0h-0.2l-1.1-0.1l-1.4-0.1v-4.4h1.4c0.8,0,1.3,0.2,1.5,0.5h0.1v-2
			h-0.1c-0.2,0.1-0.4,0.1-0.8,0.2c-0.1,0-0.2,0-0.4,0h-1.7v-3.4l0.2,0l0.3,0l0.5,0h0.8c0.5,0,1,0.1,1.3,0.2c0.4,0.1,0.7,0.3,0.9,0.6
			h0v-2.1h0c-0.1,0-0.3,0.1-0.6,0.1c-0.1,0-0.2,0-0.3,0h-5.8v0c0.4,0.1,0.6,0.4,0.7,0.8c0.1,0.4,0.1,0.8,0.1,1.4v8
			c0,1-0.3,1.6-0.8,1.8v0.1h7.5l0.8-2.4h0C97,41.2,96.6,41.5,96.1,41.7z"/>
		<path class="st2" d="M106.8,40.9l-2.8-3.5c0.9-0.3,1.6-0.7,2.1-1.2c0.5-0.5,0.7-1.1,0.8-1.7c0-0.9-0.3-1.7-0.9-2.3
			c-0.6-0.6-1.6-0.9-2.8-0.9h-4.2l0,0.1c0.3,0.1,0.5,0.3,0.6,0.5c0.1,0.2,0.2,0.4,0.2,0.6l0,0.5v0.3v0.1v0.1v0.2v0.2v7
			c0,0.8,0,1.4-0.1,1.7c-0.1,0.4-0.3,0.6-0.6,0.8v0.1h3.4v0c-0.3-0.1-0.4-0.3-0.5-0.5c-0.1-0.2-0.2-0.4-0.2-0.7
			c0-0.3-0.1-0.7-0.1-1.3v-8.2c0.2-0.1,0.4-0.1,0.6-0.1c0.2,0,0.4,0,0.5,0c0.7,0,1.2,0.2,1.7,0.5c0.3,0.2,0.4,0.4,0.6,0.6
			c0.1,0.2,0.2,0.5,0.2,0.8c0,0.5-0.2,1-0.5,1.4c-0.3,0.4-0.7,0.7-1.2,0.9l-0.4,0.2l-0.4,0.1c-0.1,0-0.2,0.1-0.4,0.1l-0.4,0.1
			l1.7,2.5l2.1,2.6c0.3,0.4,0.6,0.6,0.9,0.8c0.3,0.2,0.7,0.3,1.1,0.3h1.8c-0.7-0.5-1.3-0.9-1.8-1.3C107.3,41.5,107,41.2,106.8,40.9z
			"/>
		<path class="st2" d="M113.1,32.4c0-0.3,0.1-0.5,0.2-0.7c0.1-0.2,0.3-0.3,0.5-0.4v0h-3.4v0c0.4,0.2,0.6,0.4,0.7,0.8l0.1,0.3l0,0.3
			l0,1v7c0,0.8,0,1.4-0.1,1.8c-0.1,0.4-0.3,0.6-0.6,0.7v0.1h3.4v-0.1c-0.2-0.1-0.4-0.3-0.5-0.4c-0.1-0.2-0.2-0.4-0.2-0.7
			c0-0.3-0.1-0.8-0.1-1.4v-7C113,33.1,113,32.7,113.1,32.4z"/>
		<path class="st2" d="M124.7,41.4c-0.3,0.1-0.6,0.3-0.9,0.4c-0.6,0.2-1.2,0.3-1.8,0.3c-0.7,0-1.4-0.1-2-0.4
			c-0.6-0.3-1.1-0.7-1.5-1.1c-0.2-0.2-0.4-0.5-0.6-0.8c-0.2-0.3-0.3-0.6-0.4-0.9c-0.2-0.6-0.3-1.2-0.3-1.9c0-0.4,0-0.8,0.1-1.2
			c0.1-0.4,0.2-0.7,0.3-1c0.3-0.7,0.8-1.3,1.4-1.7c0.3-0.2,0.6-0.4,1-0.5c0.4-0.1,0.8-0.2,1.2-0.2c1.2,0,2.4,0.3,3.5,1v-2.1
			c-1.2-0.3-2.3-0.5-3.3-0.5c-1,0-1.8,0.2-2.6,0.5c-0.8,0.3-1.5,0.8-2,1.4c-0.6,0.6-1,1.3-1.3,2.1c-0.3,0.8-0.4,1.6-0.4,2.5v0.2v0.2
			c0,0.6,0.1,1.2,0.3,1.7c0.2,0.6,0.5,1,0.8,1.5c0.7,0.9,1.5,1.5,2.4,1.9c0.2,0.1,0.5,0.2,0.8,0.3l0.8,0.2c0.5,0.1,1.1,0.2,1.6,0.2
			c1.1,0,2.1-0.2,3-0.6l0.9-2.1h-0.1C125.3,41,125,41.2,124.7,41.4z"/>
		<path class="st2" d="M135.3,43.2L135.3,43.2l3.7,0.1v-0.1c-0.4-0.2-0.7-0.5-0.9-0.8c-0.1-0.1-0.2-0.3-0.3-0.5
			c-0.1-0.1-0.1-0.2-0.2-0.3c-0.1-0.1-0.1-0.3-0.2-0.4l-4-10h-2.9v0c0.4,0.1,0.5,0.4,0.5,0.7c0,0.2-0.1,0.4-0.2,0.8l-3.1,7.9
			l-0.3,0.7l-0.2,0.4l-0.2,0.3c-0.1,0.2-0.3,0.4-0.5,0.6l-0.2,0.2l-0.1,0.1c-0.1,0.1-0.2,0.1-0.3,0.2v0.1h3.3v-0.1
			c-0.4-0.1-0.6-0.4-0.7-0.8l0.1-0.3l0.1-0.4l1.1-3h4.6l1.2,3.1c0.1,0.3,0.2,0.6,0.2,0.7C135.9,42.8,135.7,43,135.3,43.2z
			 M130.4,37.3l1.8-4.6l1.8,4.6H130.4z"/>
		<path class="st2" d="M148.8,31.2c0.4,0.2,0.7,0.5,0.8,0.8c0.1,0.3,0.2,0.8,0.2,1.3v7.2l-6.6-8.4c-0.4-0.5-0.6-0.8-0.6-0.9H140v0
			c0.3,0.2,0.6,0.5,0.7,0.7c0.1,0.2,0.2,0.7,0.2,1.3V41c0,0.1,0,0.2,0,0.3c0,0.1,0,0.3,0,0.4l-0.1,0.4l-0.1,0.2
			c-0.1,0.3-0.4,0.6-0.8,0.8v0.1h3.2v-0.1c-0.3-0.2-0.4-0.3-0.6-0.5c-0.1-0.1-0.2-0.3-0.3-0.6c-0.1-0.2-0.1-0.6-0.1-1.1v-7.3
			l6.5,8.3c0.3,0.4,0.7,0.8,1,1.1c0.3,0.3,0.8,0.5,1.4,0.7l0-10.4c0-0.5,0-0.9,0.1-1.1c0.1-0.3,0.2-0.5,0.3-0.6
			c0.1-0.1,0.3-0.3,0.6-0.4v0L148.8,31.2L148.8,31.2z"/>
		<path class="st2" d="M64.9,27c-0.4-0.3-0.7-0.5-0.8-0.7c-0.2-0.2-0.3-0.5-0.4-0.8c-0.1-0.4-0.2-0.9-0.2-1.7V12.9l9.7,12.5
			c0.5,0.6,1,1.1,1.5,1.6c0.5,0.4,1.2,0.8,2.1,1l-0.1-15.6c0-0.7,0.1-1.3,0.2-1.7c0.1-0.4,0.3-0.7,0.4-0.9c0.2-0.2,0.5-0.4,0.8-0.6
			V9.1h-4.8v0.1c0.6,0.3,1,0.8,1.2,1.3c0.2,0.5,0.2,1.1,0.2,1.9V23l-9.9-12.6c-0.6-0.7-0.8-1.1-0.8-1.3h-4v0.1
			c0.5,0.4,0.9,0.7,1.1,1.1c0.2,0.4,0.3,1,0.3,2v11.6c0,0.1,0,0.3,0,0.4c0,0.2,0,0.4-0.1,0.6l-0.1,0.6l-0.1,0.4
			c-0.2,0.5-0.6,0.9-1.1,1.2v0.1h4.8V27z"/>
		<path class="st2" d="M99.5,15.8c-0.2-0.7-0.4-1.3-0.6-1.8c-0.6-1.2-1.3-2.1-2.2-2.9c-0.5-0.4-1-0.8-1.5-1.1
			c-0.5-0.3-1.1-0.6-1.7-0.7c-1.2-0.4-2.5-0.6-3.8-0.6c-0.6,0-1.3,0.1-1.9,0.2C87.1,9,86.5,9.1,86,9.3c-1.2,0.5-2.2,1.2-3.1,2
			c-0.9,0.8-1.6,1.9-2.1,3.1c-0.5,1.2-0.8,2.5-0.8,3.9v0.1l-0.1,0.1c0,0.8,0.1,1.5,0.3,2.3c0.3,0.8,0.6,1.5,1,2.2
			c0.9,1.4,2.1,2.6,3.7,3.4c1.5,0.9,3.3,1.3,5.4,1.3c0.9,0,1.8-0.1,2.6-0.4c0.8-0.3,1.6-0.6,2.4-1.1c1.5-0.9,2.6-2.1,3.4-3.6
			c0.8-1.5,1.2-3.1,1.2-4.8C99.8,17.1,99.7,16.5,99.5,15.8z M96.6,19.6c-0.1,0.4-0.2,0.8-0.3,1.3c-0.2,0.8-0.6,1.6-1.1,2.3
			c-0.5,0.7-1.2,1.2-2,1.7c-0.5,0.2-0.9,0.4-1.4,0.6c-0.1,0-0.2,0.1-0.4,0.1c-0.1,0-0.2,0-0.4,0.1l-0.8,0c-1.3,0-2.5-0.3-3.6-1
			c-1.1-0.7-2-1.6-2.6-2.7c-0.2-0.3-0.3-0.6-0.4-0.9c-0.1-0.3-0.2-0.6-0.3-0.8c-0.1-0.3-0.1-0.5-0.2-0.6c0-0.1-0.1-0.3-0.1-0.5
			c0-0.2,0-0.3,0-0.5c0-0.1,0-0.3,0-0.4c0-1.5,0.3-2.9,0.9-4c0.6-1.1,1.4-2,2.4-2.6c0.6-0.3,1.1-0.6,1.7-0.7
			c0.3-0.1,0.6-0.2,0.9-0.2c0.2,0,0.4,0,0.5,0c0.1,0,0.2,0,0.4,0c1.3,0,2.5,0.3,3.5,1c1,0.6,1.8,1.5,2.4,2.5c0.6,1,0.9,2.2,1,3.3
			l0.1,0.9C96.7,18.8,96.7,19.2,96.6,19.6z"/>
		<path class="st2" d="M102.9,9.9c0.2,0.3,0.3,0.6,0.3,0.9l0.1,0.7v0.4V12v0.2v0.2v0.3v10.5c0,1.2-0.1,2-0.2,2.6
			c-0.1,0.6-0.5,0.9-1,1.2v0.1h5.1v-0.1c-0.4-0.2-0.6-0.5-0.8-0.7c-0.2-0.3-0.3-0.6-0.3-1.1c-0.1-0.5-0.1-1.1-0.1-2V11
			c0.3-0.1,0.7-0.1,0.9-0.2c0.3,0,0.6-0.1,0.8-0.1c1,0,1.8,0.2,2.5,0.7c0.4,0.3,0.7,0.6,0.8,0.9c0.2,0.4,0.3,0.8,0.3,1.3
			c0,0.8-0.2,1.5-0.7,2.1c-0.5,0.6-1.1,1.1-1.8,1.4l-0.6,0.2l-0.6,0.2c-0.2,0.1-0.4,0.1-0.5,0.1l-0.6,0.1l2.5,3.8l3.2,3.9
			c0.4,0.6,0.9,1,1.3,1.2c0.5,0.3,1,0.4,1.7,0.4h2.8c-1.1-0.7-2-1.4-2.7-2c-0.7-0.6-1.1-1.1-1.5-1.5l-4.1-5.2
			c1.4-0.5,2.4-1.1,3.1-1.9c0.7-0.8,1.1-1.6,1.2-2.5c0-1.4-0.5-2.6-1.4-3.5c-0.9-0.9-2.4-1.4-4.3-1.4H102L102,9.2
			C102.4,9.4,102.7,9.6,102.9,9.9z"/>
		<path class="st2" d="M120.7,11.1h2.3v13.4c0,1.5-0.4,2.3-1.2,2.6v0.1h5.4V27c-0.6-0.4-1-0.8-1.2-1.2c-0.2-0.4-0.3-0.9-0.3-1.5
			V11.1h2.5l0.8,0.1c0.2,0,0.5,0.1,0.6,0.2c0.4,0.1,0.6,0.4,0.8,0.8h0.1l0.8-3.2h-0.1c-0.2,0.1-0.7,0.2-1.4,0.2h-10.4
			c-0.6,0-1-0.1-1.2-0.2h-0.1l-1,3.2h0.1C118.1,11.4,119.2,11.1,120.7,11.1z"/>
		<path class="st2" d="M151.1,10.1c0.2-0.5,0.5-0.8,0.9-1V9.1h-5.2v0.1c0.5,0.2,0.9,0.6,1,1.1c0.1,0.5,0.2,1.2,0.2,2v4.1h-9.8v-3.8
			c0-1,0.1-1.7,0.2-2.2c0.1-0.5,0.5-0.9,0.9-1.1V9.1h-5.1v0.1c0.5,0.2,0.8,0.5,0.9,1c0.1,0.2,0.1,0.5,0.2,0.8c0,0.3,0.1,0.6,0.1,1
			v0.7v11.9c0,1.4-0.4,2.3-1.2,2.6v0.1h5.1V27c-0.8-0.3-1.2-1.1-1.2-2.6v-6.1h9.8v6.1c0,1.4-0.4,2.3-1.2,2.6v0.1h5.2V27
			c-0.8-0.3-1.2-1.2-1.2-2.6V12.2C150.9,11.3,151,10.6,151.1,10.1z"/>
	</g>
</g>
<g id="Layer_2" class="st0">
	<g class="st3">
		<polygon class="st4" points="132.1,38.5 135.8,38.5 134,33.7 		"/>
		<polygon class="st4" points="62.1,38.5 65.8,38.5 64,33.7 		"/>
		<path class="st4" d="M96.3,14.5c-0.6-1.1-1.4-2-2.5-2.6c-1-0.7-2.2-1-3.6-1c-0.2,0-0.3,0-0.4,0s-0.3,0-0.5,0s-0.5,0.1-0.9,0.2
			c-0.6,0.2-1.1,0.4-1.7,0.7c-1,0.6-1.8,1.5-2.4,2.7s-0.9,2.6-0.9,4.2c0,0.2,0,0.3,0,0.5c0,0.1,0,0.3,0,0.5s0.1,0.4,0.1,0.5
			s0.1,0.3,0.2,0.6c0.1,0.3,0.2,0.6,0.3,0.9c0.1,0.3,0.3,0.6,0.5,0.9c0.6,1.1,1.5,2,2.7,2.7c1.1,0.7,2.4,1,3.8,1h0.8
			c0.1,0,0.2,0,0.4-0.1c0.1,0,0.3-0.1,0.4-0.1c0.5-0.1,0.9-0.3,1.4-0.6c0.8-0.4,1.5-1,2.1-1.7c0.5-0.7,0.9-1.5,1.2-2.3
			c0.1-0.4,0.2-0.9,0.3-1.3c0.1-0.4,0.1-0.9,0.1-1.3V18C97.3,16.8,96.9,15.6,96.3,14.5z"/>
		<path class="st4" d="M5.4,30.5L5.4,30.5c0,17.2,12.7,26.9,23.8,31C33,60.1,37,58,40.6,55.2C37,58,33,60.1,29.2,61.5
			C18.1,57.4,5.4,47.7,5.4,30.5z"/>
		<path class="st2" d="M64.3,48.7c0.3,0.1,0.4,0.5,0.4,1.3v4c0,0.3-0.1,0.6-0.3,0.8c-0.2,0.2-0.4,0.4-0.7,0.5s-0.6,0.2-1,0.2
			c-0.2,0-0.5-0.1-0.7-0.1c-0.2-0.1-0.4-0.2-0.5-0.4c-0.3-0.3-0.5-0.9-0.5-1.6V50c0-0.4,0-0.7,0.1-0.9s0.2-0.4,0.5-0.5l0,0h-2.2l0,0
			c0.2,0.1,0.3,0.2,0.3,0.3c0.1,0.1,0.1,0.2,0.2,0.4c0,0.1,0,0.4,0,0.7v3.9c0,0.5,0.1,0.9,0.3,1.3c0.2,0.4,0.5,0.6,0.8,0.8
			c0.1,0.1,0.2,0.1,0.3,0.1s0.2,0.1,0.3,0.1c0.2,0.1,0.4,0.1,0.7,0.1c0.5,0,1-0.1,1.4-0.2c0.4-0.2,0.7-0.4,0.9-0.7v0.8h1.7l0,0
			c-0.4-0.1-0.6-0.5-0.6-1.2v-5.1c0-0.7,0.2-1.1,0.6-1.2l0,0L64.3,48.7L64.3,48.7z"/>
		<path class="st2" d="M76.9,48.7c0.2,0.2,0.4,0.3,0.4,0.5c0.1,0.2,0.1,0.5,0.1,0.8v4.5l-4.1-5.3C73.1,49,73,48.7,73,48.7h-1.6l0,0
			c0.2,0.2,0.3,0.3,0.4,0.5s0.1,0.4,0.1,0.8v4.8c0,0,0,0.1,0,0.2c0,0.1,0,0.2,0,0.3v0.3v0.1c-0.1,0.2-0.2,0.4-0.4,0.5l0,0h2l0,0
			c-0.2-0.1-0.3-0.2-0.3-0.3c-0.1-0.1-0.1-0.2-0.2-0.4c0-0.1-0.1-0.4-0.1-0.7v-4.5l4,5.1c0.2,0.3,0.4,0.5,0.6,0.7s0.5,0.3,0.8,0.4
			V50c0-0.3,0-0.5,0.1-0.7c0-0.2,0.1-0.3,0.2-0.4c0.1-0.1,0.2-0.2,0.3-0.3l0,0L76.9,48.7L76.9,48.7z"/>
		<path class="st2" d="M85.4,55.9c-0.1-0.1-0.1-0.2-0.1-0.4s0-0.5,0-0.9v-4.4c0-0.3,0-0.6,0-0.8s0.1-0.3,0.1-0.5s0.2-0.2,0.3-0.3
			l0,0h-2.1l0,0c0.2,0.1,0.3,0.3,0.4,0.5v0.2v0.2v0.6v4.4c0,0.5,0,0.9-0.1,1.1c-0.1,0.2-0.2,0.4-0.4,0.5l0,0h2.1l0,0
			C85.5,56.1,85.4,56,85.4,55.9z"/>
		<path class="st2" d="M95.2,48.7c0.3,0.1,0.4,0.3,0.4,0.6c0,0.2-0.1,0.5-0.2,0.9l-1.7,4.6l-1.9-5.2c-0.1-0.3-0.2-0.6-0.2-0.8v-0.1
			H90l0,0c0.2,0.1,0.3,0.3,0.4,0.5c0.1,0.1,0.2,0.4,0.3,0.7l1.8,5.1c0.2,0.4,0.3,0.7,0.4,0.8c0.1,0.2,0.4,0.3,0.7,0.5l0.3,0.2
			l2.9-7.8H95.2L95.2,48.7z"/>
		<path class="st2" d="M105.8,55.2c-0.3,0.1-0.6,0.2-0.9,0.2h-0.1h-0.1l-0.7-0.1l-0.9-0.1v-2.6h0.9c0.5,0,0.8,0.1,1,0.3l0,0v-1.2
			l0,0c-0.1,0-0.3,0.1-0.5,0.1c-0.1,0-0.1,0-0.3,0h-1.1v-2.2h0.1h0.2h0.3h0.5c0.3,0,0.6,0,0.8,0.1c0.2,0.1,0.4,0.2,0.6,0.3l0,0v-1.2
			h-0.1c-0.1-0.1-0.2-0.1-0.4,0c0,0-0.1,0-0.2-0.1h-3.6l0,0c0,0,0.4,0.2,0.4,0.5c0.1,0.2,0.1,0.5,0.1,0.9v5c0,0.6-0.2,1-0.5,1.1l0,0
			h4.7l0.5-1.5h-0.1C106.3,54.9,106.1,55.1,105.8,55.2z"/>
		<path class="st2" d="M116.3,54.8l-1.7-2.2c0.6-0.2,1-0.4,1.3-0.8c0.3-0.3,0.5-0.7,0.5-1c0-0.6-0.2-1.1-0.6-1.5s-1.8-0.6-1.8-0.6
			h-2.6l0,0c0.2,0.1,0.3,0.2,0.3,0.3c0.1,0.1,0.1,0.2,0.1,0.4v0.3v0.2V50l0,0v0.1v0.1v4.4c0,0.5,0,0.8-0.1,1.1
			c-0.1,0.2-0.2,0.4-0.4,0.5l0,0h2l0,0c-0.1-0.1-0.2-0.2-0.3-0.3c-0.1-0.1-0.1-0.3-0.1-0.5s0-0.5,0-0.8v-5.1c0.2,0,0.3-0.1,0.4-0.1
			s0.2,0,0.3,0c0.4,0,0.8,0.1,1,0.3c0.2,0.1,0.3,0.2,0.3,0.4c0.1,0.1,0.1,0.3,0.1,0.5c0,0.3-0.1,0.6-0.3,0.9
			c-0.2,0.2-0.5,0.4-0.8,0.6l-0.2,0.1l-0.2,0.1c-0.1,0-0.2,0.1-0.2,0.1h-0.2l1,1.6l1.3,1.6c0.2,0.2,0.4,0.4,0.6,0.5s0.4,0.2,0.7,0.2
			h1.2c-0.5-0.3-0.8-0.6-1.1-0.8C116.6,55.1,116.4,54.9,116.3,54.8z"/>
		<path class="st2" d="M125.1,52.3l-1-0.5c-0.5-0.2-0.8-0.4-1.1-0.6c-0.3-0.2-0.4-0.5-0.4-0.8c0-0.1,0-0.2,0-0.2
			c0.1-0.2,0.2-0.4,0.5-0.6c0.3-0.1,0.6-0.2,0.9-0.2c0.2,0,0.3,0,0.5,0s0.3,0.1,0.5,0.1c0.3,0.1,0.6,0.3,0.8,0.5v-1.3
			c-0.6-0.2-1.1-0.2-1.6-0.2s-1,0.1-1.4,0.2s-0.8,0.3-1.1,0.6c-0.1,0.1-0.2,0.3-0.3,0.5c-0.1,0.2-0.1,0.4-0.1,0.6
			c0,0.3,0.1,0.6,0.3,0.9c0.2,0.3,0.3,0.5,0.6,0.7c0.2,0.2,0.4,0.3,0.7,0.4l1.3,0.6c0.8,0.4,1.1,0.8,1.1,1.3c0,0.4-0.2,0.7-0.5,0.9
			c-0.2,0.1-0.4,0.2-0.6,0.2s-0.4,0.1-0.6,0.1h-0.3H123l-0.6-0.2c-0.4-0.2-0.8-0.4-1.1-0.7l0.3,1.4c0.3,0.1,0.7,0.2,1,0.2
			c0.2,0,0.3,0,0.5,0.1s0.3,0,0.4,0c0.6,0,1.1-0.1,1.6-0.3s0.9-0.5,1.1-0.8c0.1-0.1,0.2-0.2,0.2-0.3l0.1-0.1c0,0,0-0.1,0.1-0.1
			c0.1-0.2,0.1-0.4,0.1-0.6c0-0.4-0.2-0.8-0.4-1.1C125.8,52.7,125.5,52.4,125.1,52.3z"/>
		<path class="st2" d="M133.2,55.9c-0.1-0.1-0.1-0.2-0.1-0.4s0-0.5,0-0.9v-4.4c0-0.3,0-0.6,0-0.8s0.1-0.3,0.1-0.5s0.2-0.2,0.3-0.3
			l0,0h-2.1l0,0c0.2,0.1,0.3,0.3,0.4,0.5v0.2v0.2v0.6v4.4c0,0.5,0,0.9-0.1,1.1c0,0.2-0.2,0.4-0.4,0.5l0,0h2.1l0,0
			C133.4,56.1,133.3,56,133.2,55.9z"/>
		<path class="st2" d="M141.6,56.3L141.6,56.3L141.6,56.3L141.6,56.3z"/>
		<path class="st2" d="M139.4,56.3L139.4,56.3L139.4,56.3L139.4,56.3z"/>
		<path class="st2" d="M137.5,50L137.5,50C137.5,50,137.4,50,137.5,50L137.5,50z"/>
		<path class="st2" d="M142.8,48.7h-4.3c-0.2,0-0.5-0.1-0.5-0.1l0,0l-0.4,1.4c0.3-0.2,0.8-0.4,1.4-0.4h1v5.6c0,0.6-0.2,0.9-0.5,1
			h2.1c-0.2-0.2-0.4-0.3-0.4-0.5c-0.1-0.2-0.1-0.4-0.1-0.6v-5.6h1h0.3c0.1,0,0.2,0,0.2,0.1c0.2,0.1,0.2,0.2,0.3,0.4h0.2l0.4-1.4
			h-0.1C143.4,48.6,143.1,48.7,142.8,48.7z"/>
		<path class="st2" d="M153.6,48.7h-1.9l0,0c0.3,0.1,0.4,0.3,0.4,0.6v0.2v0.1c0,0.1-0.1,0.2-0.1,0.2l-1.5,2.2l-1.7-2.7l-0.1-0.2
			c-0.1-0.1-0.1-0.2-0.1-0.2c-0.1-0.1-0.2-0.1-0.3-0.1s-0.3,0-0.5,0h-1.1c0.2,0.1,0.3,0.2,0.5,0.4s0.3,0.3,0.3,0.4l2.2,3.4v2.2
			c0,0.3,0,0.5-0.1,0.7s-0.2,0.3-0.4,0.4v0.1h2.2l0,0c-0.3-0.2-0.4-0.4-0.5-0.6c0-0.1-0.1-0.2-0.1-0.3s0-0.3,0-0.4v-1.9L153.6,48.7z
			"/>
		<path class="st2" d="M69.9,43.7c-0.1-0.1-0.2-0.3-0.3-0.5c-0.1-0.1-0.1-0.2-0.2-0.4s-0.1-0.3-0.2-0.4l-4.1-10.3h-2.9v0.1
			c0.4,0.1,0.6,0.4,0.6,0.7c0,0.2-0.1,0.5-0.2,0.8l-3.2,8.1l-0.3,0.8L58.9,43l-0.2,0.4c-0.2,0.2-0.3,0.5-0.5,0.6L58,44.2l-0.1,0.1
			c-0.1,0.1-0.2,0.1-0.3,0.2v0.1H61v-0.1c-0.4-0.1-0.7-0.4-0.7-0.8l0.1-0.4l0.1-0.4l1.1-3h4.7l1.2,3.2c0.2,0.3,0.2,0.6,0.2,0.8
			s-0.2,0.4-0.7,0.6v0.1h3.8v-0.1C70.5,44.3,70.1,44,69.9,43.7z M62.1,38.5l1.9-4.8l1.8,4.8H62.1z"/>
		<path class="st2" d="M87.3,43.5c-0.1-0.2-0.1-0.5-0.1-0.9l-1.2-9v-0.2v-0.1c0-0.3,0-0.5,0.1-0.7s0.3-0.3,0.4-0.4l0,0h-3.2
			c0,0.4-0.1,0.8-0.2,1l-3.2,8.2L76.4,33c-0.1-0.2-0.1-0.5-0.2-0.8h-3.3v0.1c0.5,0.2,0.7,0.6,0.7,1c0,0.1,0,0.3-0.1,0.5v0.4l-1.1,8
			c-0.1,0.6-0.2,1.1-0.4,1.5c-0.1,0.4-0.4,0.7-0.7,0.9v0.1h3.1v-0.1c-0.2-0.1-0.4-0.3-0.5-0.4c-0.1-0.1-0.1-0.2-0.2-0.4
			c0-0.1,0-0.1,0-0.2v-0.3c0-0.1,0-0.3,0-0.6l1.1-8.6l3.7,8.8c0.2,0.5,0.4,0.9,0.6,1.2c0.1,0.2,0.3,0.3,0.4,0.5L80,45l4.2-11l1,8.6
			v0.3v0.5c0,0.6-0.2,1-0.7,1.1v0.1h3.6l0,0c-0.2-0.2-0.4-0.3-0.6-0.5C87.5,43.9,87.4,43.7,87.3,43.5z"/>
		<path class="st2" d="M96.8,42.9c-0.5,0.2-1,0.3-1.5,0.3L95,43.1h-0.2h-1.1L92.3,43v-4.5h1.5c0.8,0,1.3,0.2,1.6,0.6l0,0v-2h-0.1
			c-0.2,0.1-0.4,0.1-0.8,0.2c-0.1,0-0.2,0-0.5,0h-1.8v-3.6h0.2h0.3h0.5H94c0.6,0,1,0.1,1.4,0.2c0.4,0.1,0.7,0.3,0.9,0.6l0,0V32l0,0
			c-0.1,0-0.3,0.1-0.6,0.2c-0.1,0-0.2,0-0.3,0h-6l0,0c0,0,0.7,0.4,0.8,0.8c0.1,0.4,0.1,0.8,0.1,1.4v8.3c0,1-0.3,1.6-0.9,1.8v0.1h7.8
			l0.8-2.4l0,0C98.2,42.1,97.2,42.7,96.8,42.9z"/>
		<path class="st2" d="M107.8,42.1l-2.8-3.6c1-0.3,1.7-0.7,2.1-1.3c0.5-0.5,0.8-1.1,0.8-1.7c0-1-0.3-1.8-1-2.4c-0.6-0.6-2.9-1-2.9-1
			h-4.3v0.1c0.3,0.1,0.5,0.3,0.6,0.5s0.2,0.4,0.2,0.6v0.5v0.3v0.1v0.1v0.2v0.2v7.2c0,0.8,0,1.4-0.1,1.8c-0.1,0.4-0.3,0.7-0.6,0.8
			v0.1h3.4v-0.1c-0.2-0.2-0.4-0.3-0.5-0.5s-0.2-0.4-0.2-0.7s-0.1-0.8-0.1-1.4v-8.5c0.2-0.1,0.5-0.1,0.7-0.1s0.4,0,0.5,0
			c0.7,0,1.2,0.2,1.7,0.5c0.3,0.2,0.5,0.4,0.6,0.6s0.2,0.5,0.2,0.9c0,0.6-0.2,1-0.5,1.4s-0.7,0.7-1.2,0.9l-0.4,0.2l-0.4,0.1
			c-0.1,0-0.2,0.1-0.4,0.1l-0.4,0.1l1.7,2.6l2.2,2.7c0.3,0.4,0.6,0.7,0.9,0.8c0.3,0.2,0.7,0.3,1.2,0.3h1.9c-0.8-0.5-1.4-1-1.8-1.4
			C108.3,42.8,108,42.4,107.8,42.1z"/>
		<path class="st2" d="M114.2,33.4c0-0.3,0.1-0.6,0.2-0.7c0.1-0.2,0.3-0.3,0.5-0.5l0,0h-3.5l0,0c0.4,0.2,0.6,0.4,0.6,0.8l0.1,0.3
			v0.3v1v7.2c0,0.8,0,1.4-0.1,1.8c-0.1,0.4-0.3,0.6-0.6,0.8v0.1h3.6v-0.1c-0.2-0.1-0.4-0.3-0.5-0.5s-0.2-0.4-0.2-0.7s0-0.8,0-1.4
			v-7.2C114.2,34.1,114.2,33.7,114.2,33.4z"/>
		<path class="st2" d="M126.2,42.6c-0.3,0.1-0.6,0.3-1,0.4c-0.6,0.2-1.2,0.3-1.8,0.3c-0.8,0-1.5-0.2-2.1-0.5s-1.1-0.7-1.5-1.2
			c-0.2-0.2-0.4-0.5-0.6-0.8s-0.3-0.6-0.4-0.9c-0.2-0.6-0.3-1.3-0.3-1.9c0-0.4,0-0.8,0.2-1.2c0.1-0.4,0.2-0.8,0.3-1.1
			c0.3-0.7,0.8-1.3,1.4-1.7c0.3-0.2,0.7-0.4,1-0.5c0.4-0.1,0.8-0.2,1.2-0.2c1.2,0,2.4,0.4,3.6,1.1v-2.1c-1.2-0.3-2.3-0.5-3.3-0.5
			s-1.9,0.2-2.7,0.5c-0.8,0.3-1.5,0.8-2.1,1.4c-0.6,0.6-1,1.3-1.3,2.1s-0.4,1.7-0.4,2.6v0.2v0.2c0,0.6,0.1,1.2,0.3,1.8
			c0.2,0.6,0.5,1.1,0.8,1.5c0.7,0.9,1.5,1.5,2.5,2c0.2,0.1,0.5,0.2,0.8,0.3l0.8,0.2c0.5,0.1,1.1,0.2,1.6,0.2c1.1,0,2.1-0.2,3.1-0.6
			l1-2.2l0,0C126.9,42.2,126.5,42.4,126.2,42.6z"/>
		<path class="st2" d="M137.2,44.5L137.2,44.5l3.8,0.1v-0.1c-0.4-0.2-0.8-0.5-1-0.8c-0.1-0.1-0.2-0.3-0.3-0.5
			c-0.1-0.1-0.1-0.2-0.2-0.4s-0.1-0.3-0.2-0.4l-4.1-10.3h-2.9v0.1c0.4,0.1,0.6,0.4,0.6,0.7c0,0.2-0.1,0.5-0.2,0.8l-3.2,8.1l-0.3,0.8
			L129,43l-0.2,0.4c-0.2,0.2-0.3,0.5-0.5,0.6l-0.2,0.2l-0.1,0.1c-0.1,0.1-0.2,0.1-0.3,0.2v0.1h3.4v-0.1c-0.4-0.1-0.7-0.4-0.7-0.8
			l0.1-0.4l0.1-0.4l1.1-3h4.7l1.2,3.2c0.2,0.3,0.2,0.6,0.2,0.8C137.8,44.1,137.6,44.3,137.2,44.5z M132.1,38.5l1.9-4.8l1.8,4.8
			H132.1z"/>
		<path class="st2" d="M151,32.1L151,32.1c0.4,0.3,0.7,0.6,0.8,0.9c0.1,0.3,0.2,0.8,0.2,1.3v7.4l-6.9-8.7c-0.4-0.5-0.6-0.8-0.6-0.9
			h-2.7l0,0c0.4,0.2,0.6,0.5,0.8,0.8c0.1,0.3,0.2,0.7,0.2,1.4v8c0,0.1,0,0.2,0,0.3s0,0.3,0,0.4l-0.1,0.4l-0.1,0.2
			c-0.2,0.3-0.4,0.6-0.8,0.8v0.1h3.3v-0.1c-0.3-0.2-0.5-0.4-0.6-0.5s-0.2-0.3-0.3-0.6s-0.1-0.6-0.1-1.1v-7.5l6.7,8.6
			c0.3,0.4,0.7,0.8,1,1.1s0.8,0.5,1.4,0.7V34.4c0-0.5,0-0.9,0.1-1.2s0.2-0.5,0.3-0.6s0.3-0.3,0.6-0.5l0,0
			C154.2,32.1,151,32.1,151,32.1z"/>
		<path class="st2" d="M64.7,27.8c-0.4-0.3-0.7-0.5-0.9-0.7s-0.3-0.5-0.5-0.9c-0.1-0.4-0.2-0.9-0.2-1.7V13.3l10,12.9
			c0.5,0.6,1,1.2,1.5,1.6c0.5,0.5,1.2,0.8,2.1,1.1V12.8c0-0.7,0.1-1.3,0.2-1.8c0.1-0.4,0.3-0.7,0.4-1s0.5-0.4,0.8-0.7v0.1h-4.9v0.1
			c0.6,0.4,1,0.8,1.2,1.3s0.2,1.2,0.2,1.9v11l-9.9-13C64.3,10,64,9.6,64,9.4h-4.4v0.1c0.5,0.4,0.9,0.7,1.1,1.1
			c0.2,0.4,0.3,1.1,0.3,2.1v11.9c0,0.1,0,0.3,0,0.4c0,0.2,0,0.4-0.1,0.7l-0.1,0.7l-0.1,0.4c-0.2,0.5-0.6,0.9-1.1,1.2v0.1h5
			L64.7,27.8L64.7,27.8z"/>
		<path class="st2" d="M100.3,16.3c-0.2-0.7-0.4-1.3-0.6-1.9c-0.6-1.2-1.3-2.2-2.2-3c-0.5-0.4-1-0.8-1.5-1.1s-1.1-0.6-1.7-0.8
			c-1.3-0.4-2.6-0.7-3.9-0.7c-0.7,0-1.3,0.1-2,0.2c-0.7,0.2-1.3,0.3-1.9,0.5c-1.2,0.5-2.3,1.2-3.2,2.1s-1.7,1.9-2.2,3.2
			c-0.5,1.2-0.8,2.6-0.8,4l0,0v0.1L80,19c0,0.8,0.1,1.6,0.3,2.3c0.3,0.8,0.6,1.6,1,2.2c0.9,1.5,2.2,2.7,3.8,3.5s3.4,1.3,5.5,1.3
			c1,0,1.9-0.1,2.7-0.4c0.9-0.3,1.7-0.7,2.4-1.1c1.5-1,2.7-2.2,3.5-3.7s1.2-3.2,1.2-4.9C100.6,17.6,100.5,17,100.3,16.3z M97.3,20.3
			c-0.1,0.4-0.2,0.8-0.3,1.3c-0.2,0.9-0.6,1.6-1.2,2.3c-0.5,0.7-1.2,1.3-2.1,1.7c-0.5,0.3-1,0.5-1.4,0.6c-0.1,0-0.3,0.1-0.4,0.1
			s-0.2,0-0.4,0.1h-0.8c-1.4,0-2.6-0.3-3.8-1c-1.1-0.7-2-1.6-2.7-2.7c-0.2-0.3-0.3-0.6-0.5-0.9c-0.1-0.3-0.2-0.6-0.3-0.9
			c-0.1-0.3-0.1-0.5-0.2-0.6c0-0.1,0-0.3-0.1-0.5c0-0.2,0-0.4,0-0.5s0-0.3,0-0.5c0-1.6,0.3-3,0.9-4.2s1.4-2.1,2.4-2.7
			c0.6-0.3,1.2-0.6,1.7-0.7c0.4-0.1,0.7-0.2,0.9-0.2c0.2,0,0.4,0,0.5,0s0.3,0,0.4,0c1.4,0,2.6,0.3,3.6,1s1.9,1.5,2.5,2.6
			s1,2.2,1.1,3.5V19C97.4,19.4,97.4,19.8,97.3,20.3z"/>
		<path class="st2" d="M103.7,10.3c0.2,0.3,0.3,0.6,0.3,0.9l0.1,0.7v0.4v0.2v0.2v0.2v0.3V24c0,1.2-0.1,2.1-0.2,2.7s-0.5,1-1,1.2V28
			h5.3l0,0c-0.4-0.2-0.7-0.5-0.8-0.7c-0.2-0.3-0.3-0.6-0.3-1.1c-0.1-0.5-0.1-1.2-0.1-2V11.4c0.3-0.1,0.7-0.1,1-0.2
			c0.3,0,0.6-0.1,0.8-0.1c1,0,1.9,0.2,2.6,0.7c0.4,0.3,0.7,0.6,0.9,0.9c0.2,0.4,0.3,0.8,0.3,1.3c0,0.8-0.2,1.5-0.7,2.1
			c-0.5,0.6-1.1,1.1-1.8,1.4l-0.6,0.2l-0.6,0.2c-0.2,0.1-0.4,0.1-0.6,0.1l-0.6,0.1l2.6,3.9l3.2,4c0.4,0.6,0.9,1,1.3,1.3
			c0.5,0.3,1,0.4,1.7,0.4h2.8c-1.1-0.7-2-1.4-2.7-2.1c-0.7-0.6-1.2-1.1-1.5-1.6l-4.2-5.4c1.4-0.5,2.5-1.1,3.2-1.9
			c0.7-0.8,1.1-1.7,1.2-2.6c0-1.5-0.5-2.7-1.4-3.6c-1-1-2.4-1.4-4.4-1.4h-6.6l-0.1,0.1C103.2,9.7,103.5,10,103.7,10.3z"/>
		<path class="st2" d="M122.1,11.4h2.3v13.8c0,1.5-1.2,2.7-1.2,2.7V28h5.6v-0.1c0,0-1.1-0.8-1.2-1.3s-0.3-1-0.2-1.5V11.4h2.5
			l0.9,0.1c0.3,0,0.5,0.1,0.7,0.2c0.4,0.2,0.8,0.8,0.8,0.8h0.1l0.9-3.3H133c-0.2,0.2-0.7,0.2-1.4,0.2h-10.7c-0.6,0-1-0.1-1.3-0.2
			h-0.1l-1,3.3h0.1C118.7,12.5,120.5,11.4,122.1,11.4z"/>
		<path class="st2" d="M141.5,27.8c-0.8-0.3-1.2-1.2-1.2-2.7v-6.3h10v6.3c0,1.5-0.4,2.4-1.2,2.7v0.1h5.3v-0.1
			c-0.8-0.3-1.2-1.2-1.2-2.7V12.6c0-1,0.1-1.7,0.3-2.2s0.5-0.8,0.9-1l0,0H149l0,0c0.5,0.2,0.9,0.6,1,1.2c0.1,0.5,0.2,1.2,0.2,2v4.2
			h-10v-3.9c0-1,0.1-1.8,0.2-2.3c0.2-0.5,0.5-0.9,1-1.2l0,0h-5.3v0.1c0.5,0.2,0.8,0.6,1,1c0.1,0.2,0.1,0.5,0.2,0.8
			c0,0.3,0.1,0.6,0.1,1V13v12.3c0,1.5-0.4,2.4-1.2,2.6V28h5.3V27.8z"/>
		<path class="st2" d="M5.4,30.5c0,17.2,12.7,26.9,23.8,31C33,60.1,37,58,40.6,55.2C47.5,49.9,53,41.8,53,30.5V5.4H5.4V30.5z
			 M29.8,7.6h20.9v22.8h-1.2c-0.4-0.3-1-0.5-1.8-0.6c-0.7-0.1-1.4-0.9-1.5-1.5v-0.5c0,0-1.2,0.6-1.5,0.1c-0.4-0.5-0.1-1.4-0.1-1.4
			s-0.6-0.1-0.8,0.1c-0.3,0.2-0.2,0.8-0.2,0.8l-0.7,0.5l-1-0.5c-0.3-0.3-0.3-1.1-0.3-1.5c0-0.5,0.4-1,0.9-1.2l0.8-0.3l0.2-0.8
			l1.4-0.1c0.4,0,0.8,0.1,1.1,0.4l0.8,0.7l-0.2-1c-0.1-0.4,0-0.7,0.2-1c0,0,0.2-0.3,0.5-0.8c0.2-0.5,0-1.2,0-2
			c0-1.4,0.7-2.1,0.7-2.1l0.9-0.2l0.3-1.5c-0.5,0.3-0.8,0.7-1.2,0.6l-0.5-0.4c0.4-0.7,1-1.8,1.7-1.6c0.8,0.2,1,0.1,1.2-0.4h-1.3
			c-0.3,0-0.5-0.1-0.7-0.2l-1.9-1l-0.8,0.7h-1l0.1,1l0.5,0.6v1.1l-0.9-0.6l-0.8-0.1l-1.2-0.3l-0.7-0.8l0.5-1.3l1.1-0.7l-1-0.6
			l-0.4-1.1c0,0-0.2,0.9-0.5,1.2s-0.6,0.5-0.6,0.5l-1-0.7c0,0-1.2,0.3-2.2-0.2c-0.5-0.2-1.3-1-1.5-1.3l-0.3-0.7l-0.6-1l-1.3,0.1
			h-0.7l0.2,1l-0.9,0.8c-0.2,0.2-0.6,0.4-0.9,0.4h-0.9l0.3,0.7l1.7-0.2c0.1,0,0.3,0,0.4,0l1.4,0.2c0,0,0,1.1,0.4,2.3
			s0.9,2.2,0.7,3.6s-0.7,1.9-0.3,3.3c0.3,1.4,1,2.7,1,2.7l0.3-1l2,2.8c0.1,0.2,0.2,0.3,0.2,0.5l0.1,0.6c0.1,0.5,0.4,0.8,0.9,1
			l1.5,0.6l0.2,0.1c0.5,0.1,2.9,0.7,3.2,0.8c0.2,0.2,0.9,0.5,1.2,0.7c0.1,0.1,0.6,0.4,0.9,0.5h-17L29.8,7.6L29.8,7.6z M29.8,31.7
			h21.1C50.7,37.3,49,42,46.4,45.9C42.3,52.2,36,56.4,29.8,59.1v-9.4l2.4,1.6l1.7,1.1l2.3,1.6l-0.7-2.7l-1.8-6.1l4.6-3.8l2.2-1.8
			h-2.9l-5.3-0.1L30.1,34l0,0l-0.3-0.7V31.7z M31.6,40.4l-2.5,3.3l8.5-3.2l-5,4.2l-3.5-0.9l5.4,7.8l-5.4-3.7l0,0l-5.5,3.7l0,0
			l5.5-7.8l0,0l-3.6,1l-5.2-4.2l8.8,3.2l0,0l-2.5-3.2l2.5-6.4l0,0L31.6,40.4z M28.5,33l-0.3,0.8L26,39.4h-5.5h-2.8l2.2,1.8l4.6,3.8
			l-1.7,6.1l-0.7,2.7l2.3-1.6l4.3-2.9v9.3C18.5,54.5,8.4,46,7.8,31.8h20.7V33z M7.6,7.6h20.9v22.8h-19H7.7H7.6V7.6z"/>
		<path class="st5" d="M5.4,4.3h-1v1v25.1c0,8.1,2.7,15.2,8,21.1s11.9,9.2,16.5,10.9l0.3,0.1l0.3-0.1c4.6-1.7,11.2-5,16.5-10.9
			s8-13,8-21.1V5.3v-1h-1H5.4z M53,30.5c0,11.3-5.5,19.3-12.4,24.7C37,58,33,60.1,29.2,61.5c-11.1-4.2-23.8-13.8-23.8-31l0,0V5.4H53
			V30.5z"/>
		<path class="st6" d="M11.6,22.2C11.5,22.2,11.5,22.2,11.6,22.2c-2,1.6-2.4,3.4-2.4,3.4S8.1,24,9.8,21c0.2-0.4,0.4-0.8,0.5-1.3
			c-1.1,1-2.2,0.9-2.2,0.9c1.3-1.4,1.1-2.7,2-4.5c-0.5,0.4-0.9,0.5-1.4,0.4c2.1-2.7,1.3-4.3,4.1-6.3c1.6-1.2,5.4-1.4,7.2,0.5l0,0
			c0.3-0.1,0.8,0,1,0.2c-0.5,0.2-0.6,0.7-0.6,0.7l0.8,1.5l0.3,5c0,0.5-0.2,0.7-0.6,0.8l-1.2-0.1c0,0,0,0-0.1,0L18.8,18
			c-0.1-0.1-0.1-0.1-0.1-0.2c0,0,0.1-1.1-0.2-1.6C18.4,16,18.2,16,18.2,16c-0.2,0-0.5-0.1-0.7-0.2c-0.1,0-0.1,0-0.1,0.1
			c0,0.4-0.1,1.8,1.4,2.9s1.7,2.1,1.7,2.4c0,0.1,0.1,0.1,0.1,0.1l3.2-1.5c0.5-0.2,1,0.2,1,0.6L24,26.8c0,0.2-0.1,0.3-0.2,0.5
			L21,29.9c-0.8-1.1-0.2-3-0.2-3l0.9-0.1c0.1-1.3,1.1-1.5,1.1-1.5l0.4-3.8l0.4-0.2c0.1,0,0.2,0,0.1,0.1l-0.4,4.2l0,0l0.4-4.2
			c0-0.1-0.1-0.1-0.1-0.1l-6,3.2l1-2.2c0.7-3.3-1.8-4.1-2.5-5.8c-1.2-3,1.1-4,1.8-4.2c0.1,0,0.1,0,0.1,0.1c0,0,0,0,0,0.1
			c0.2,0.4,0.8,2.1,2,2.2c0,0-0.3,2.3,0.9,2.9c0,0.2,0,0.3,0,0.5c0,0,0,0.1,0,0.2c0-0.1,0.1-0.2,0.1-0.2c0.1-1.7-0.3-4.9-0.3-4.9
			l-0.8-1.3c0-0.2,0.3-0.5,0.5-0.7c0,0-0.5-0.2-1.2,0.2c0,0-0.9-0.6-2.3-0.6c0.9,0.1,1.7,0.3,2.3,0.6c-1.7-0.3-3.9-0.2-4.7,2.2
			c-1.1,3.2,0.9,5.8,1.8,7.7c1.1,2.4,0.4,6.4-1.6,9.1H9.5l0,0h19V7.6H7.6v22.8h0.1C10.6,27.8,11.3,24.2,11.6,22.2z M18.8,27.6
			c-0.5,1.2-1,2.1-1.5,2.8h-1.5c0.8-1.3,1.4-2.8,1.6-3.6c0.7-2.2,4.7-3.4,4.7-3.4L22,24.3C22,24.3,19.7,25.4,18.8,27.6z M25.1,23.2
			L25.1,23.2l0.3-1.7c0.5,0.8,2.2,3.4,2.7,4.2c0.1,0.1,0.1,0.3,0.1,0.4l-0.3,1.1c0,0.1-0.1,0.2-0.1,0.2c-0.5,0.5-2.8,2.7-2.8,2.7
			c-0.4-0.6-0.2-2.5-0.2-2.5l0.8-0.4l0,0l0,0c0.2-1.1,1.1-1.2,1.1-1.2L25,24L25.1,23.2z"/>
		<path class="st6" d="M22.7,27.2L22.7,27.2c-0.1-0.4-0.1-0.6,0-0.9C22.6,26.6,22.6,26.8,22.7,27.2z"/>
		<path class="st6" d="M26.1,28c0-0.8,0.9-0.8,0.9-0.8l-0.1-1.6c0-0.1,0-0.2-0.1-0.3L26.5,25l0.3,0.3c0.1,0.1,0.1,0.2,0.1,0.3
			l0.1,1.6C27,27.2,26.1,27.1,26.1,28h-0.5l0,0H26.1z"/>
		<path class="st5" d="M28.5,58.7v-9.3l-4.3,2.9l-2.3,1.6l0.7-2.7l1.7-6.1l-4.6-3.8l-2.2-1.8h2.8h5.5l2.2-5.6l0.3-0.8v-1.2H7.8
			C8.4,46,18.5,54.5,28.5,58.7z"/>
		<path class="st2" d="M21.9,28l0.9-0.8c-0.1-0.4-0.1-0.6,0-0.9c0.1-0.4,0.4-0.6,0.5-0.7l0,0l0.4-4.2c0-0.1-0.1-0.1-0.1-0.1
			l-0.4,0.2l-0.4,3.8c0,0-1,0.2-1.1,1.5l0,0L21.9,28z"/>
		<path class="st2" d="M25.4,27.1L25.4,27.1L25.4,27.1L25.4,27.1c0,0.7,0.2,0.9,0.3,0.9l0.5-0.1c0-0.8,0.9-0.8,0.9-0.8L27,25.5
			c0-0.1-0.1-0.2-0.1-0.3l-0.3-0.3l-1.4-1.7l0,0l0,0L25,24l1.4,1.8C26.5,25.9,25.5,26,25.4,27.1z"/>
		<path class="st2" d="M16.3,10.7c-0.7,0-1.5,0.2-2.3,0.7c-3.2,1.7-2.1,6-1.7,7.4c0,0.1,0,0.1,0,0.2c0.2,0.9,0.5,1.8,0.4,2.7
			c-0.1,2.4-1.5,6.6-3.3,8.7h5.1c2.1-2.7,2.8-6.7,1.6-9.1c-0.9-1.8-2.9-4.5-1.8-7.7c0.8-2.4,3-2.6,4.7-2.2c-0.6-0.3-1.4-0.6-2.3-0.6
			c-0.1,0-0.2,0-0.3,0C16.5,10.7,16.4,10.7,16.3,10.7z"/>
		<path class="st2" d="M17.8,12.9C17,15,18.7,15.4,19,15.4c0.1,0,0.1,0.1,0.1,0.1c0,2.7,1,2.9,1.4,2.9c0.1,0,0.2-0.1,0.2-0.1
			c0-0.1,0-0.1,0-0.2c0-0.2,0-0.3,0-0.5c-1.1-0.6-0.9-2.9-0.9-2.9c-1.2-0.2-1.8-1.8-2-2.2C17.9,12.6,17.9,12.7,17.8,12.9
			C17.8,12.8,17.8,12.9,17.8,12.9z"/>
		<path class="st5" d="M22.1,23.3c0,0-4,1.2-4.7,3.4c-0.2,0.8-0.8,2.3-1.6,3.6h1.5c0.5-0.7,1-1.6,1.5-2.8c0.9-2.2,3.3-3.3,3.3-3.3
			V23.3z"/>
		<path class="st5" d="M26.5,24.9l0.3,0.3c0.1,0.1,0.1,0.2,0.1,0.3l0.1,1.6c0,0-0.8,0-0.9,0.8L25.6,28l0,0c0,0-0.2-0.3-0.2-0.9l0,0
			l-0.8,0.4c0,0-0.2,2,0.2,2.5c0,0,2.3-2.2,2.8-2.7c0.1-0.1,0.1-0.1,0.1-0.2L28,26c0-0.2,0-0.3-0.1-0.4c-0.5-0.8-2.2-3.4-2.7-4.2
			l-0.3,1.7l0,0L26.5,24.9z"/>
		<path class="st5" d="M12.8,21.7c0-0.9-0.2-1.8-0.4-2.7c0-0.1,0-0.1,0-0.2c-0.4-1.4-1.5-5.6,1.7-7.4c0.8-0.4,1.6-0.6,2.3-0.7
			c0.1,0,0.1,0,0.2,0s0.2,0,0.3,0c1.4,0.1,2.3,0.6,2.3,0.6c0.7-0.3,1.2-0.2,1.2-0.2c-0.3,0.2-0.5,0.5-0.5,0.7l0.8,1.3
			c0,0,0.3,3.1,0.3,4.9c0,0,0,0.1-0.1,0.2c0,0.1-0.1,0.1-0.2,0.1c-0.5,0-1.4-0.2-1.4-2.9c0,0,0-0.1-0.1-0.1c-0.4,0-2-0.4-1.2-2.5
			v-0.1c0-0.1,0.1-0.2,0.1-0.3c0,0,0,0,0-0.1s0-0.2-0.1-0.1c-0.7,0.2-3,1.2-1.8,4.2c0.7,1.6,3.2,2.4,2.5,5.8l-1,2.2l6-3.2
			c0.1,0,0.2,0,0.1,0.1l-0.4,4.2l0,0l0,0c-0.1,0.1-0.4,0.3-0.5,0.7c-0.1,0.2-0.1,0.5,0,0.8l0,0l-1,1l-0.2-1.2l0,0l-0.9,0.1
			c0,0-0.5,1.9,0.2,3l2.8-2.7c0.1-0.1,0.2-0.3,0.2-0.5l0.7-6.4c0-0.5-0.5-0.8-1-0.6l-3.2,1.5c-0.1,0-0.1,0-0.1-0.1
			c0-0.3-0.1-1.3-1.7-2.4c-1.5-1.1-1.5-2.5-1.4-2.9c0-0.1,0.1-0.1,0.1-0.1c0.2,0.1,0.5,0.2,0.7,0.2c0,0,0.2,0,0.3,0.2
			c0.3,0.5,0.2,1.6,0.2,1.6c0,0.1,0,0.2,0.1,0.2l0.8,0.9c0,0,0,0,0.1,0l1.2,0.1c0.4-0.1,0.6-0.3,0.6-0.8l-0.3-5l-0.8-1.5
			c0,0,0.1-0.5,0.6-0.7c-0.2-0.2-0.7-0.3-1-0.2l0,0c-1.8-2-5.6-1.7-7.2-0.5c-2.8,2-1.9,3.6-4.1,6.3c0.6,0.1,1-0.1,1.4-0.4
			c-0.9,1.8-0.7,3.1-2,4.5c0,0,1.1,0.2,2.2-0.9c-0.1,0.4-0.3,0.9-0.5,1.3c-1.6,3-0.6,4.5-0.6,4.5s0.4-1.8,2.3-3.3c0,0,0-0.1,0.1-0.1
			c-0.2,2.1-1,5.6-3.9,8.2h1.8l0,0C11.3,28.3,12.7,24.1,12.8,21.7z"/>
		<path class="st6" d="M30.1,33.9l2.2,5.5l5.3,0.1h2.9l-2.2,1.8l-4.6,3.8l1.8,6.1l0.7,2.7L34,52.4l-1.7-1.1l-2.4-1.6v9.4
			c6.2-2.6,12.5-6.9,16.6-13.1c2.6-3.9,4.2-8.6,4.5-14.2H29.8v1.4L30.1,33.9L30.1,33.9z"/>
		<polygon class="st6" points="29.1,43.7 23.7,51.5 23.7,51.5 29.1,47.8 		"/>
		<polygon class="st5" points="29.1,43.7 29.1,43.7 29.1,43.7 29.1,43.7 29.1,47.8 29.1,47.8 34.6,51.4 29.1,43.7 32.7,44.6 
			37.7,40.4 29.1,43.7 31.6,40.4 29.1,34.1 		"/>
		<polygon class="st6" points="26.6,40.5 29.1,43.7 29.1,43.7 29.1,34.1 29.1,34.1 		"/>
		<polygon class="st6" points="25.5,44.7 29.1,43.7 20.4,40.5 		"/>
		<path class="st5" d="M45.8,29.8c-0.3-0.2-1-0.6-1.2-0.7c-0.3-0.2-2.7-0.7-3.2-0.8l-0.2-0.1l-1.5-0.6c-0.4-0.2-0.8-0.5-0.9-1
			L38.7,26c0-0.2-0.1-0.3-0.2-0.5l-2-2.8l-0.3,1c0,0-0.6-1.3-1-2.7c-0.3-1.4,0.1-1.8,0.3-3.3s-0.4-2.4-0.7-3.6s-0.4-2.3-0.4-2.3
			L33,11.5c-0.1,0-0.3,0-0.4,0l-1.7,0.2L30.6,11h0.9c0.3,0,0.7-0.1,0.9-0.4l0.9-0.8l-0.2-1h0.7l1.3-0.1l0.6,1l0.3,0.7
			c0.2,0.3,1,1,1.5,1.3c1.1,0.5,2.2,0.2,2.2,0.2l1,0.7c0,0,0.3-0.2,0.6-0.5s0.5-1.2,0.5-1.2l0.4,1.1l0.7,0.6l-1.1,0.7l-0.5,1.3
			l0.7,0.8l1.2,0.3l0.8,0.1l0.9,0.6v-1.1l-0.5-0.6l-0.1-1h1l0.8-0.7l1.9,1c0.2,0.1,0.5,0.2,0.7,0.2H50c-0.2,0.5-0.4,0.6-1.2,0.4
			c-0.8-0.2-1.3,0.9-1.7,1.6l0.5,0.4c0.4,0.2,0.7-0.2,1.2-0.6l-0.3,1.5l-0.9,0.2c0,0-0.7,0.8-0.7,2.1c0,0.7,0.2,1.5,0,2
			s-0.5,0.8-0.5,0.8c-0.2,0.3-0.2,0.7-0.2,1l0.2,1l-0.8-0.7c-0.3-0.3-0.7-0.4-1.1-0.4l-1.4,0.1l-0.2,0.8l-0.8,0.3
			c-0.5,0.2-0.9,0.7-0.9,1.2c0,0.4-0.1,1.3,0.3,1.5l1,0.5l0.7-0.5c0,0-0.1-0.5,0.2-0.8c0.3-0.2,0.8-0.1,0.8-0.1s-0.2,0.9,0.1,1.4
			c0.4,0.5,1.5-0.1,1.5-0.1v0.5c0.1,0.7,0.8,1.5,1.5,1.5c0.9,0.1,1.5,0.3,1.8,0.6h1.2V7.6H29.8v22.8h17
			C46.5,30.2,45.9,29.9,45.8,29.8z"/>
	</g>
</g>
</svg>
